<svg width="45" height="45" viewBox="0 0 45 45" fill="none" xmlns="http://www.w3.org/2000/svg">
<g style="mix-blend-mode:luminosity">
<path d="M28.4714 40.714L28.4606 40.7104L28.4497 40.7073C24.5929 39.6136 20.5434 39.6133 16.6865 40.7064C16.2445 40.8244 15.8008 40.5689 15.6897 40.1579L15.6899 40.1579L15.6863 40.1459C15.5606 39.723 15.8136 39.2731 16.2375 39.1586L16.2375 39.1586L16.2433 39.157C20.3906 37.9825 24.7575 37.9822 28.9048 39.156C29.3461 39.2887 29.5858 39.7295 29.4669 40.1405C29.3426 40.5177 29.0073 40.7446 28.6696 40.7446C28.6051 40.7446 28.5278 40.7328 28.4714 40.714Z" stroke="black"/>
<path d="M35.6269 12.1423L35.6273 12.1432C39.2791 19.4828 35.7669 27.4949 30.1142 31.3059L29.8937 31.4545V31.7204V33.0329V33.0422L29.8941 33.0514C29.9128 33.5573 29.9122 34.2909 29.3629 34.8566C28.9568 35.2614 28.3312 35.5142 27.4125 35.5142H17.7937C17.0229 35.5142 16.2492 35.4268 15.7522 34.9157C15.276 34.4252 15.2746 33.8228 15.2934 33.2945L15.2938 33.2856V33.2767V31.7204V31.4538L15.0723 31.3052C10.8062 28.4429 8 23.5092 8 18.8392C8 14.396 9.97573 10.2468 13.4554 7.47397L13.4554 7.47398L13.4576 7.47218C16.9186 4.6816 21.4504 3.62843 25.8795 4.60863L25.8806 4.60888C30.105 5.53353 33.7461 8.34441 35.6269 12.1423ZM23.045 17.7767L24.2086 15.7507L24.2091 15.7498C24.7213 14.8535 24.4122 13.6883 23.5019 13.1573L23.5019 13.1573L23.4981 13.1551C22.6018 12.6429 21.4366 12.952 20.9056 13.8623L20.9041 13.8649L18.8978 17.3524L18.8965 17.3547C18.3575 18.3034 18.2869 19.3577 18.8048 20.2522L18.8048 20.2522L18.8077 20.2572C19.3229 21.1237 20.2684 21.6079 21.3562 21.6079H22.0675L20.9039 23.6339L20.9034 23.6349C20.3928 24.5285 20.6985 25.6894 21.6024 26.2225C21.9029 26.4112 22.2415 26.4829 22.5562 26.4829C23.2235 26.4829 23.8558 26.1243 24.2069 25.5224L24.2084 25.5198L26.2135 22.0343C26.2137 22.0339 26.214 22.0335 26.2142 22.0331C26.7568 21.0989 26.8245 20.025 26.3077 19.1324L26.3077 19.1324L26.3048 19.1274C25.7896 18.261 24.8441 17.7767 23.7563 17.7767H23.045Z" stroke="black"/>
</g>
</svg>
