<svg width="45" height="45" viewBox="0 0 45 45" fill="none" xmlns="http://www.w3.org/2000/svg">
<g style="mix-blend-mode:luminosity">
<path d="M10.8009 17.1001C14.2808 17.1001 17.1019 14.2795 17.1019 10.8001C17.1019 7.32063 14.2808 4.5 10.8009 4.5C7.32102 4.5 4.5 7.32063 4.5 10.8001C4.5 14.2795 7.32102 17.1001 10.8009 17.1001Z" stroke="black"/>
<path d="M31.4985 27.8994H36.8993C38.8796 27.8994 40.4998 29.5194 40.4998 31.4994V36.8995C40.4998 38.8795 38.8796 40.4995 36.8993 40.4995H31.4985C29.5182 40.4995 27.8979 38.8795 27.8979 36.8995V31.4994C27.8979 29.5194 29.5182 27.8994 31.4985 27.8994Z" stroke="black"/>
<path d="M22.5534 9.90039H27.3782C30.7087 9.90039 32.2569 14.0224 29.7545 16.2185L15.3704 28.8006C12.868 30.9786 14.4162 35.1006 17.7287 35.1006H22.5534" stroke="black" stroke-linecap="round" stroke-linejoin="round"/>
<path d="M10.8256 10.8004H10.8464" stroke="black" stroke-linecap="round" stroke-linejoin="round"/>
<path d="M34.2331 34.2003H34.2539" stroke="black" stroke-linecap="round" stroke-linejoin="round"/>
</g>
</svg>
