<svg width="45" height="45" viewBox="0 0 45 45" fill="none" xmlns="http://www.w3.org/2000/svg">
<g style="mix-blend-mode:luminosity">
<path d="M42.979 13.6996V13.701V31.299C42.979 35.0216 41.8713 37.9326 39.8914 39.9124C37.9116 41.8923 35.0006 43 31.278 43H13.701C9.97845 43 7.06759 41.8923 5.08777 39.91C3.10789 37.9277 2 35.0114 2 31.278V13.701C2 9.97843 3.10768 7.06743 5.08755 5.08755C7.06743 3.10768 9.97844 2 13.701 2H31.299C35.0217 2 37.9325 3.10772 39.9096 5.08733C41.8866 7.06684 42.9892 9.97738 42.979 13.6996ZM15.654 34.235C17.2923 34.235 18.611 32.9219 18.611 31.299V24.453C18.611 22.8301 17.2923 21.517 15.654 21.517C14.0339 21.517 12.718 22.8329 12.718 24.453V31.299C12.718 32.9191 14.0339 34.235 15.654 34.235ZM29.346 34.235C30.9661 34.235 32.282 32.9191 32.282 31.299V13.701C32.282 12.0809 30.9661 10.765 29.346 10.765C27.7077 10.765 26.389 12.0781 26.389 13.701V31.299C26.389 32.9219 27.7077 34.235 29.346 34.235Z" stroke="black"/>
</g>
</svg>
