<svg width="45" height="45" viewBox="0 0 45 45" fill="none" xmlns="http://www.w3.org/2000/svg">
<g style="mix-blend-mode:luminosity">
<path d="M39.4 20.8687V21.3687H39.9H42.6187C43.2561 21.3687 43.75 21.8626 43.75 22.5C43.75 23.12 43.2518 23.6313 42.6187 23.6313H39.9H39.4V24.1313V28.9162V29.4162H39.9H42.6187C43.2561 29.4162 43.75 29.9101 43.75 30.5475C43.75 31.1675 43.2518 31.6788 42.6187 31.6788H39.3997H39.0284L38.9211 32.0342C37.9255 35.3322 35.3322 37.9255 32.0342 38.9211L31.6788 39.0284V39.3997V42.6187C31.6788 43.2344 31.1631 43.75 30.5475 43.75C29.9319 43.75 29.4162 43.2344 29.4162 42.6187V39.9V39.4H28.9162H24.153H23.653V39.9V42.6187C23.653 43.2344 23.1374 43.75 22.5217 43.75C21.8887 43.75 21.3905 43.2387 21.3905 42.6187V39.9V39.4H20.8905H16.1055H15.6055V39.9V42.6187C15.6055 43.2344 15.0899 43.75 14.4743 43.75C13.8412 43.75 13.343 43.2387 13.343 42.6187V39.3997V39.0277L12.9867 38.9208C9.66529 37.9244 7.05324 35.3303 6.07974 32.037L5.97384 31.6788H5.60025H2.38125C1.76564 31.6788 1.25 31.1631 1.25 30.5475C1.25 29.9145 1.76129 29.4162 2.38125 29.4162H5.1H5.6V28.9162V24.1313V23.6313H5.1H2.38125C1.76564 23.6313 1.25 23.1156 1.25 22.5C1.25 21.867 1.76129 21.3687 2.38125 21.3687H5.1H5.6V20.8687V16.0837V15.5837H5.1H2.38125C1.76129 15.5837 1.25 15.0855 1.25 14.4525C1.25 13.8369 1.76564 13.3212 2.38125 13.3212H5.60025H5.97159L6.07891 12.9658C7.07438 9.66828 9.6672 7.075 12.9867 6.07916L13.343 5.97227V5.60025V2.38125C13.343 1.76129 13.8412 1.25 14.4743 1.25C15.0899 1.25 15.6055 1.76564 15.6055 2.38125V5.1V5.6H16.1055H20.8687H21.3687V5.1V2.38125C21.3687 1.76564 21.8844 1.25 22.5 1.25C23.1156 1.25 23.6313 1.76564 23.6313 2.38125V5.1V5.6H24.1313H28.9162H29.4162V5.1V2.38125C29.4162 1.76564 29.9319 1.25 30.5475 1.25C31.1631 1.25 31.6788 1.76564 31.6788 2.38125V5.60025V5.97159L32.0342 6.07891C35.3322 7.07452 37.9255 9.66782 38.9211 12.9658L39.0284 13.3212H39.3997H42.6187C43.2518 13.3212 43.75 13.8325 43.75 14.4525C43.75 15.0899 43.2561 15.5837 42.6187 15.5837H39.9H39.4V16.0837V20.8687ZM27.4155 34.4405C31.2804 34.4405 34.4405 31.2804 34.4405 27.4155V17.5845C34.4405 13.7196 31.2804 10.5595 27.4155 10.5595H17.5845C13.7196 10.5595 10.5595 13.7196 10.5595 17.5845V27.4155C10.5595 31.2804 13.7196 34.4405 17.5845 34.4405H27.4155Z" stroke="black"/>
</g>
</svg>
