<svg width="152" height="29" viewBox="0 0 152 29" fill="none" xmlns="http://www.w3.org/2000/svg">
<path d="M131.802 28.6849V0.865723H136.2V10.8602C136.798 10.1519 137.481 9.56167 138.25 9.08949C139.047 8.61732 139.901 8.26318 140.812 8.02709C141.723 7.791 142.634 7.67296 143.545 7.67296C145.709 7.67296 147.402 8.10579 148.627 8.97145C149.851 9.81088 150.719 10.952 151.231 12.3947C151.744 13.8375 152 15.4639 152 17.2739V28.6849H147.559V18.2183C147.559 17.3788 147.488 16.5525 147.345 15.7393C147.232 14.9261 147.004 14.1916 146.662 13.5358C146.321 12.8538 145.794 12.316 145.082 11.9226C144.399 11.5029 143.474 11.293 142.307 11.293C141.196 11.293 140.243 11.516 139.446 11.9619C138.677 12.4079 138.051 13.0112 137.567 13.7719C137.111 14.5064 136.77 15.3196 136.542 16.2115C136.314 17.0772 136.2 17.9428 136.2 18.8085V28.6849H131.802Z" fill="white"/>
<path d="M117.853 28.9209C115.49 28.9209 113.511 28.4749 111.917 27.583C110.351 26.6911 109.17 25.4582 108.373 23.8843C107.604 22.2842 107.22 20.4479 107.22 18.3756C107.22 16.3295 107.618 14.5063 108.415 12.9062C109.241 11.2798 110.465 10.0075 112.088 9.08939C113.739 8.14503 115.774 7.67285 118.194 7.67285C119.845 7.67285 121.311 7.93517 122.592 8.45982C123.873 8.95823 124.913 9.70584 125.71 10.7027C126.535 11.6733 127.076 12.893 127.332 14.362H122.934C122.564 13.2865 121.938 12.5127 121.055 12.0405C120.201 11.5683 119.191 11.3322 118.023 11.3322C116.458 11.3322 115.205 11.6733 114.266 12.3553C113.355 13.0373 112.686 13.9161 112.259 14.9916C111.832 16.0671 111.618 17.1951 111.618 18.3756C111.618 19.6085 111.832 20.7496 112.259 21.7989C112.714 22.8481 113.397 23.7007 114.308 24.3565C115.248 24.9861 116.472 25.3008 117.981 25.3008C119.119 25.3008 120.173 25.0779 121.141 24.6319C122.108 24.1597 122.735 23.3728 123.019 22.271H127.546C127.29 23.7925 126.692 25.0516 125.752 26.0485C124.813 27.019 123.646 27.7404 122.251 28.2126C120.884 28.6848 119.418 28.9209 117.853 28.9209Z" fill="white"/>
<path d="M93.0431 28.9209C90.6803 28.9209 88.7017 28.4749 87.1075 27.583C85.5133 26.6911 84.3034 25.4582 83.4779 23.8843C82.6808 22.2842 82.2822 20.4479 82.2822 18.3756C82.2822 16.277 82.695 14.4276 83.5206 12.8275C84.3746 11.2273 85.5987 9.96816 87.1929 9.05004C88.8156 8.13191 90.7657 7.67285 93.0431 7.67285C94.7797 7.67285 96.2885 7.97452 97.5695 8.57786C98.8506 9.15497 99.9039 9.94193 100.729 10.9388C101.583 11.9356 102.21 13.0504 102.608 14.2833C103.007 15.49 103.178 16.7492 103.121 18.0608C103.121 18.3493 103.107 18.6248 103.078 18.8871C103.05 19.1494 103.021 19.4248 102.993 19.7134H86.7232C86.8086 20.7627 87.0933 21.7202 87.5773 22.5858C88.0897 23.4515 88.8014 24.1466 89.7124 24.6713C90.6233 25.1697 91.7478 25.4189 93.0858 25.4189C93.826 25.4189 94.5377 25.3402 95.2209 25.1828C95.9326 24.9992 96.5589 24.7237 97.0998 24.3565C97.6691 23.963 98.0677 23.4646 98.2954 22.8613H102.736C102.366 24.2516 101.697 25.4058 100.729 26.3239C99.79 27.2158 98.6371 27.8716 97.2706 28.2913C95.9326 28.711 94.5234 28.9209 93.0431 28.9209ZM86.8086 16.4868H98.7652C98.7367 15.4638 98.4805 14.5588 97.9965 13.7718C97.5126 12.9586 96.8436 12.3291 95.9895 11.8831C95.1355 11.4109 94.1107 11.1748 92.915 11.1748C91.6055 11.1748 90.5095 11.424 89.627 11.9225C88.7729 12.4209 88.1039 13.0767 87.62 13.8899C87.1645 14.6768 86.894 15.5425 86.8086 16.4868Z" fill="white"/>
<path d="M74.5438 28.9201C72.1241 28.9201 70.3875 28.3168 69.3342 27.1101C68.3093 25.8772 67.7969 24.159 67.7969 21.9555V11.5676H64.21V7.94752C64.21 7.94752 67.0289 7.51428 68.0569 6.55758C69.5598 5.15889 70.2809 2.04893 70.2809 2.04893L72.1952 1.92725V7.94752H79.0702V11.5676H72.1952V21.2866C72.1952 22.0211 72.2664 22.69 72.4087 23.2933C72.5795 23.8967 72.8927 24.3688 73.3482 24.7099C73.8037 25.0509 74.4584 25.2345 75.3125 25.2607C75.9672 25.2607 76.5366 25.1558 77.0205 24.9459C77.533 24.7361 77.9457 24.5 78.2589 24.2377L79.967 27.2675C79.4261 27.661 78.8567 27.9889 78.2589 28.2512C77.6895 28.4873 77.0917 28.6578 76.4654 28.7627C75.8391 28.8676 75.1986 28.9201 74.5438 28.9201Z" fill="white"/>
<path d="M55.9869 28.6848V7.94834H60.3852V28.6848H55.9869ZM58.1647 5.19396C57.3107 5.19396 56.6132 4.95787 56.0724 4.48569C55.5599 3.98728 55.3037 3.35771 55.3037 2.59698C55.3037 1.83625 55.5742 1.21979 56.115 0.747615C56.6559 0.249205 57.3392 0 58.1647 0C58.9334 0 59.6024 0.249205 60.1717 0.747615C60.7696 1.21979 61.0685 1.83625 61.0685 2.59698C61.0685 3.35771 60.7838 3.98728 60.2144 4.48569C59.6735 4.95787 58.9903 5.19396 58.1647 5.19396Z" fill="white"/>
<path d="M30.5518 28.6848V7.94829H34.7365L34.9501 10.8601C35.5194 10.0993 36.2026 9.49599 36.9997 9.05004C37.7969 8.57786 38.6509 8.23684 39.5619 8.02699C40.4728 7.7909 41.3553 7.67285 42.2094 7.67285C44.3729 7.67285 46.0668 8.10568 47.2909 8.97134C48.5435 9.81077 49.426 10.9519 49.9384 12.3946C50.4793 13.8112 50.7498 15.4244 50.7498 17.2345V28.6848H46.3088V18.0608C46.3088 17.2213 46.2518 16.395 46.138 15.5818C46.0241 14.7686 45.7821 14.0473 45.412 13.4177C45.0704 12.7619 44.5722 12.2504 43.9175 11.8831C43.2627 11.4896 42.3802 11.2929 41.2699 11.2929C39.9035 11.2929 38.7505 11.6339 37.8111 12.3159C36.8716 12.998 36.1599 13.9161 35.676 15.0703C35.192 16.2245 34.9501 17.523 34.9501 18.9658V28.6848H30.5518Z" fill="white"/>
<path d="M12.2554 28.9997C9.40866 28.9997 7.07428 28.475 5.25234 27.4258C3.45886 26.3502 2.1351 24.8812 1.28106 23.0188C0.427019 21.1563 0 18.9921 0 16.5263V0.865723H4.5264V16.5657C4.5264 18.1133 4.76838 19.543 5.25234 20.8546C5.73629 22.1662 6.54763 23.2155 7.68635 24.0025C8.82506 24.7894 10.3623 25.1829 12.2982 25.1829C14.2624 25.1829 15.7997 24.7894 16.91 24.0025C18.0202 23.2155 18.8031 22.1662 19.2586 20.8546C19.7141 19.543 19.9418 18.1133 19.9418 16.5657V0.865723H24.5109V16.5263C24.5109 18.9659 24.0839 21.13 23.2298 23.0188C22.3758 24.8812 21.052 26.3502 19.2586 27.4258C17.4651 28.475 15.1307 28.9997 12.2554 28.9997Z" fill="white"/>
</svg>
