<svg width="70" height="70" viewBox="0 0 70 70" fill="none" xmlns="http://www.w3.org/2000/svg">
<circle cx="35" cy="35" r="35" fill="#E9ECE4"/>
<path d="M45.6222 25.6468C45.3014 25.3259 44.9805 25.005 44.6596 24.6841C43.6969 23.6573 42.6701 22.6304 41.3865 21.9886C39.9104 21.2185 38.306 21.411 36.7016 21.411C34.2628 21.411 28.166 21.411 24.572 21.411L27.0108 24.6841C31.439 24.6841 38.3702 24.6841 41.5791 24.6841C42.9268 24.6841 44.082 24.9408 45.173 25.6468C45.3655 25.7109 45.5581 25.7109 45.6222 25.6468Z" fill="#66C61C"/>
<path d="M48.3177 30.9075C47.9968 30.5866 47.6759 30.2657 47.3551 29.9448C46.3924 28.918 45.3656 27.8912 44.082 27.2494C42.6059 26.4792 41.0015 26.6718 39.3971 26.6718C37.2792 26.6718 32.2092 26.6718 28.6152 26.6718L31.054 29.9448C35.418 29.9448 41.3866 29.9448 44.3387 29.9448C45.6864 29.9448 46.8416 30.2015 47.9327 30.9075C48.061 30.9717 48.1894 30.9717 48.3177 30.9075Z" fill="#4CA30D"/>
<path d="M51.3333 36.0442C51.0124 35.7233 50.6915 35.4024 50.3706 35.0816C49.408 34.0547 48.3811 33.0279 47.0976 32.3861C45.6215 31.616 44.0171 31.8085 42.4126 31.8085C40.4231 31.8085 36.0591 31.8085 32.5293 31.8085L34.968 35.0816C39.2037 35.0816 44.5947 35.0816 47.2901 35.0816C48.6378 35.0816 49.793 35.3383 50.8841 36.0442C51.0766 36.1084 51.2049 36.1726 51.3333 36.0442Z" fill="#3B7C0F"/>
<path d="M24.3154 44.7073C24.6363 45.0282 24.9572 45.3491 25.2781 45.67C26.2408 46.6968 27.2676 47.7236 28.5511 48.3654C30.0272 49.1355 31.6317 48.943 33.2361 48.943H45.3656L42.9269 45.67C38.4987 45.67 31.5675 45.67 28.3586 45.67C27.0109 45.67 25.8557 45.4133 24.7647 44.7073C24.5721 44.6431 24.4438 44.6431 24.3154 44.7073Z" fill="#66C61C"/>
<path d="M21.6191 39.4466C21.94 39.7675 22.2609 40.0883 22.5818 40.4092C23.5445 41.4361 24.5713 42.4629 25.8548 43.1047C27.3309 43.8748 28.9354 43.6823 30.5398 43.6823H41.3216L38.8829 40.4092C34.5188 40.4092 28.5503 40.4092 25.5981 40.4092C24.2504 40.4092 23.0952 40.1525 22.0042 39.4466C21.8758 39.3824 21.7475 39.3824 21.6191 39.4466Z" fill="#4CA30D"/>
<path d="M18.667 34.2454C18.9879 34.5663 19.3088 34.8872 19.6297 35.2081C20.5923 36.2349 21.6192 37.2617 22.9027 37.9035C24.3788 38.6737 25.9832 38.4811 27.5877 38.4811H37.471L35.0322 35.2081C30.7965 35.2081 25.4056 35.2081 22.7102 35.2081C21.3624 35.2081 20.2072 34.9514 19.1162 34.2454C18.9237 34.1812 18.7953 34.1812 18.667 34.2454Z" fill="#3B7C0F"/>
</svg>
