<svg width="70" height="70" viewBox="0 0 70 70" fill="none" xmlns="http://www.w3.org/2000/svg">
<circle cx="35" cy="35" r="35" fill="#E9ECE4"/>
<path d="M30.3333 42.0024C36.7766 42.0024 42 36.7791 42 30.3358C42 29.6055 41.9329 28.891 41.8045 28.1979C41.1115 28.0695 40.3969 28.0024 39.6667 28.0024C33.2233 28.0024 28 33.2258 28 39.6691C28 40.3993 28.0671 41.1139 28.1954 41.807C28.8885 41.9353 29.6031 42.0024 30.3333 42.0024Z" fill="#175CD3"/>
<path fill-rule="evenodd" clip-rule="evenodd" d="M28.1958 41.8063C22.7735 40.8021 18.667 36.0482 18.667 30.3351C18.667 23.8918 23.8903 18.6685 30.3337 18.6685C36.0467 18.6685 40.8007 22.7749 41.8049 28.1972C41.1118 28.0689 40.3972 28.0018 39.667 28.0018C33.2237 28.0018 28.0003 33.2251 28.0003 39.6684C28.0003 40.3987 28.0674 41.1132 28.1958 41.8063Z" fill="#1570EF"/>
<path fill-rule="evenodd" clip-rule="evenodd" d="M30.3332 42.0023C36.7765 42.0023 41.9999 36.779 41.9999 30.3356C41.9999 29.6054 41.9328 28.8908 41.8044 28.1978C47.2267 29.2019 51.3332 33.9559 51.3332 39.669C51.3332 46.1123 46.1098 51.3356 39.6665 51.3356C33.9534 51.3356 29.1995 47.2291 28.1953 41.8069C28.8884 41.9352 29.603 42.0023 30.3332 42.0023Z" fill="#2E90FA"/>
</svg>
