<svg width="70" height="70" viewBox="0 0 70 70" fill="none" xmlns="http://www.w3.org/2000/svg">
<circle cx="35" cy="35" r="35" fill="#E9ECE4"/>
<path d="M45.9998 35.0012C43.3609 37.9496 39.526 39.8051 35.2577 39.8051C30.9894 39.8051 27.1545 37.9496 24.5156 35.0012C27.1545 32.0528 30.9894 30.1973 35.2577 30.1973C39.526 30.1973 43.3609 32.0528 45.9998 35.0012Z" fill="#1FA7DF"/>
<path fill-rule="evenodd" clip-rule="evenodd" d="M20.8457 44.609C20.8457 36.6496 27.2981 30.1973 35.2575 30.1973C30.9892 30.1973 27.1543 32.0528 24.5154 35.0012C27.1543 37.9496 30.9892 39.8051 35.2575 39.8051C39.5258 39.8051 43.3607 37.9496 45.9995 35.0012C48.2816 37.5509 49.6692 40.9179 49.6692 44.609V50.0535C49.6692 50.761 49.0957 51.3345 48.3882 51.3345H22.1267C21.4192 51.3345 20.8457 50.761 20.8457 50.0535V44.609ZM45.9995 35.0012C45.9995 35.0012 45.9995 35.0012 45.9995 35.0012V35.0012Z" fill="#0ACF83"/>
<path fill-rule="evenodd" clip-rule="evenodd" d="M29.8518 38.7576C27.794 37.9244 25.9724 36.6297 24.5154 35.0018C27.1543 32.0534 30.9892 30.1979 35.2575 30.1979C39.5258 30.1979 43.3607 32.0534 45.9995 35.0018C45.9995 35.0018 45.9995 35.0018 45.9995 35.0018C48.2816 32.4521 49.6692 29.0851 49.6692 25.3939V19.9495C49.6692 19.242 49.0957 18.6685 48.3882 18.6685L22.1267 18.6685C21.4192 18.6685 20.8457 19.242 20.8457 19.9495L20.8457 25.3939C20.8457 31.4417 24.5708 36.6194 29.8518 38.7576Z" fill="#1ABCFE"/>
</svg>
