<svg width="70" height="70" viewBox="0 0 70 70" fill="none" xmlns="http://www.w3.org/2000/svg">
<circle cx="35" cy="35" r="35" fill="#E9ECE4"/>
<path d="M28.7493 19.9093C30.731 19.0885 32.8549 18.666 34.9998 18.666V26.8327C33.9273 26.8327 32.8654 27.0439 31.8746 27.4544C30.8837 27.8648 29.9834 28.4663 29.2251 29.2246C28.4668 29.9829 27.8653 30.8832 27.4549 31.8741C27.0444 32.8649 26.8332 33.9268 26.8332 34.9993H18.6665C18.6665 32.8545 19.089 30.7305 19.9098 28.7488C20.7307 26.7672 21.9337 24.9667 23.4504 23.4499C24.9671 21.9332 26.7677 20.7302 28.7493 19.9093Z" fill="#155EEF"/>
<path d="M18.6665 35C18.6665 37.1449 19.089 39.2689 19.9098 41.2505C20.7307 43.2322 21.9337 45.0327 23.4504 46.5495C24.9671 48.0661 26.7677 49.2692 28.7493 50.09C30.731 50.9108 32.8549 51.3333 34.9998 51.3333C37.1447 51.3333 39.2687 50.9108 41.2504 50.09C43.232 49.2692 45.0325 48.0661 46.5493 46.5495C48.066 45.0327 49.269 43.2322 50.0899 41.2505C50.9106 39.2689 51.3332 37.1449 51.3332 35H43.1665C43.1665 36.0725 42.9553 37.1344 42.5448 38.1253C42.1344 39.1161 41.5329 40.0164 40.7745 40.7747C40.0162 41.5331 39.1159 42.1346 38.1251 42.545C37.1343 42.9555 36.0723 43.1667 34.9998 43.1667C33.9273 43.1667 32.8654 42.9555 31.8746 42.545C30.8837 42.1346 29.9834 41.5331 29.2251 40.7747C28.4668 40.0164 27.8653 39.1161 27.4549 38.1253C27.0444 37.1344 26.8332 36.0725 26.8332 35H18.6665Z" fill="#84ADFF"/>
<path d="M35.0002 29.8018C32.13 29.8018 29.8032 32.1285 29.8032 34.9988H40.1972C40.1972 32.1285 37.8704 29.8018 35.0002 29.8018Z" fill="#84ADFF"/>
<path d="M35.0002 40.197C32.13 40.197 29.8032 37.8702 29.8032 35H40.1972C40.1972 37.8702 37.8704 40.197 35.0002 40.197Z" fill="#155EEF"/>
</svg>
