<svg width="70" height="70" viewBox="0 0 70 70" fill="none" xmlns="http://www.w3.org/2000/svg">
<circle cx="35" cy="35" r="35" fill="#E9ECE4"/>
<path d="M27.8839 21.1581L31.5534 34.8527V19.7966C31.8444 19.7287 32.1384 19.6689 32.4354 19.6174V34.8541L36.5626 19.4512C36.86 19.4781 37.1551 19.5133 37.4475 19.5566L33.287 35.0837L41.5569 20.7598C41.8263 20.881 42.0917 21.0096 42.3528 21.1453L34.052 35.5226L45.9024 23.6722C46.1161 23.8743 46.324 24.0823 46.5261 24.2959L34.6739 36.1481L49.053 27.8463C49.1887 28.1074 49.3172 28.3728 49.4384 28.6422L35.118 36.9101L50.6409 32.7508C50.6841 33.0432 50.7194 33.3382 50.7463 33.6356L35.3435 37.7628L50.5798 37.7628C50.5283 38.0598 50.4685 38.3538 50.4006 38.6448L35.3411 38.6448L49.0384 42.315C48.8977 42.5843 48.7495 42.8491 48.5939 43.109L35.1167 39.4978L46.3733 45.9968C46.1602 46.2159 45.9407 46.4288 45.7152 46.6353L34.6767 40.2622L43.0294 48.6148C42.7652 48.7692 42.496 48.9161 42.2223 49.0551L34.0521 40.885L39.4053 50.1569C39.1122 50.2398 38.8156 50.3143 38.5158 50.3803L33.2875 41.3246L35.8083 50.7323C35.5836 50.7418 35.3577 50.7467 35.1307 50.7467C35.0532 50.7467 34.9758 50.7461 34.8986 50.745L32.4354 41.5522V50.5159C32.1384 50.4644 31.8444 50.4046 31.5534 50.3368V41.5536L29.3815 49.6592C29.1045 49.5499 28.8313 49.433 28.5623 49.3088L30.7011 41.3266L26.6861 48.2808C26.4375 48.1216 26.1938 47.9556 25.955 47.783L29.9385 40.8835L24.3599 46.462C24.1463 46.26 23.9383 46.052 23.7362 45.8384L29.313 40.2616L22.4155 44.2439C22.2429 44.0052 22.0769 43.7614 21.9176 43.5129L28.8751 39.496L20.889 41.6359C20.7647 41.3668 20.6478 41.0937 20.5385 40.8167L28.644 38.6448L19.8608 38.6448C19.7929 38.3538 19.7331 38.0598 19.6816 37.7628L28.6417 37.7628L19.4524 35.3006C19.4513 35.2227 19.4507 35.1448 19.4507 35.0667C19.4507 34.8402 19.4555 34.6149 19.465 34.3908L28.8738 36.9119L19.8168 31.6828C19.8827 31.383 19.9572 31.0864 20.0401 30.7933L29.3158 36.1486L21.1422 27.9751C21.2813 27.7013 21.4281 27.4322 21.5825 27.168L29.9386 35.5241L23.563 24.4812C23.7694 24.2557 23.9824 24.0363 24.2015 23.8232L30.7016 35.0817L27.0899 21.6025C27.3498 21.447 27.6146 21.2987 27.8839 21.1581Z" fill="#2A9D8F"/>
</svg>
