<svg width="70" height="70" viewBox="0 0 70 70" fill="none" xmlns="http://www.w3.org/2000/svg">
<circle cx="35" cy="35" r="35" fill="#E9ECE4"/>
<path fill-rule="evenodd" clip-rule="evenodd" d="M35.0001 51.3332C44.0207 51.3332 51.3334 44.0205 51.3334 34.9998C51.3334 25.9792 44.0207 18.6665 35.0001 18.6665C25.9794 18.6665 18.6667 25.9792 18.6667 34.9998C18.6667 44.0205 25.9794 51.3332 35.0001 51.3332ZM40.0955 26.2753C40.3435 25.3943 39.4886 24.8733 38.7078 25.4296L27.8078 33.1947C26.961 33.7979 27.0942 34.9998 28.0079 34.9998H30.8781V34.9776H36.4721L31.9141 36.5859L29.9047 43.7244C29.6566 44.6055 30.5115 45.1264 31.2924 44.5701L42.1924 36.8051C43.0392 36.2018 42.9059 34.9998 41.9923 34.9998H37.6396L40.0955 26.2753Z" fill="#155EEF"/>
</svg>
