<svg width="70" height="70" viewBox="0 0 70 70" fill="none" xmlns="http://www.w3.org/2000/svg">
<circle cx="35" cy="35" r="35" fill="#E9ECE4"/>
<path d="M38.6925 19.0589L35.4805 18.1982L32.7737 28.3001L30.33 19.1801L27.118 20.0407L29.7583 29.8942L23.1819 23.3179L20.8306 25.6693L28.044 32.8827L19.0608 30.4757L18.2002 33.6876L28.0154 36.3176C27.903 35.8329 27.8436 35.3279 27.8436 34.809C27.8436 31.136 30.8212 28.1584 34.4942 28.1584C38.1673 28.1584 41.1448 31.136 41.1448 34.809C41.1448 35.3246 41.0861 35.8265 40.9751 36.3083L49.8953 38.6985L50.7559 35.4865L40.9017 32.8461L49.8855 30.4389L49.0248 27.2269L39.1709 29.8672L45.7472 23.2909L43.3959 20.9396L36.2825 28.053L38.6925 19.0589Z" fill="#FF4405"/>
<path d="M40.9657 36.3457C40.6904 37.51 40.109 38.5559 39.3112 39.3939L45.7735 45.8562L48.1249 43.5049L40.9657 36.3457Z" fill="#FF4405"/>
<path d="M39.246 39.4614C38.4386 40.286 37.4184 40.9014 36.2742 41.2185L38.6257 49.9944L41.8377 49.1337L39.246 39.4614Z" fill="#FF4405"/>
<path d="M36.1543 41.2506C35.6234 41.3871 35.067 41.4596 34.4936 41.4596C33.8794 41.4596 33.2845 41.3763 32.7198 41.2204L30.3661 50.0043L33.5781 50.8649L36.1543 41.2506Z" fill="#FF4405"/>
<path d="M32.6062 41.188C31.4795 40.8551 30.4774 40.2319 29.6865 39.405L23.2083 45.8832L25.5597 48.2345L32.6062 41.188Z" fill="#FF4405"/>
<path d="M29.6331 39.3477C28.8558 38.5155 28.2896 37.4836 28.0201 36.3373L19.0708 38.7353L19.9314 41.9472L29.6331 39.3477Z" fill="#FF4405"/>
</svg>
